{"title":"Trail Street  (Western 1947)  Randolph Scott, Anne Jeffreys &amp;amp","uid":9280135,"size":516278002,"categoryP":"video","categoryS":"movies","magnet":"?xt=urn:btih:7231afe03c9a72b8e90a048ec0b1194d2fa8edd7&amp;dn=Trail+Street++%28Western+1947%29++Randolph+Scott%2C+Anne+Jeffreys+%26amp&amp;tr=udp%3A%2F%2Ftracker.openbittorrent.com%3A80&amp;tr=udp%3A%2F%2Fopen.demonii.com%3A1337&amp;tr=udp%3A%2F%2Ftracker.coppersurfer.tk%3A6969&amp;tr=udp%3A%2F%2Fexodus.desync.com%3A6969","seeders":1,"leechers":0,"uploader":"BurtonW","files":1,"time":1385923598,"description":" &lt;a href=&quot;http://www.imdb.com/title/tt0039908/?ref_=fn_al_tt_1&quot; rel=&quot;nofollow&quot; target=&quot;_NEW&quot;&gt;http://www.imdb.com/title/tt0039908/?ref_=fn_al_tt_1&lt;/a&gt;\n\n\nGood quality Black &amp; White film.\n\n\nNo subtitles!\n\n\nStoryline:\n\nThe Liberal Kansas area is in trouble. The town is without a Marshal and the nearby farmers are unable to grow crops due to the summer drought and trail riders that run cattle over their land. Bat Masterson arrives to bring law and order and his Deputy accidently finds a variety of wheat that will withstand the drought. But the farmers are giving up and leaving and Bat must convince them to stay. He wants them to continue farming and also help round up the local gang of outlaws.\n\n\nTechnical info:\n\n\nGeneral:\n\nComplete name                  : Trail Street  (Western 1947)  Randolph Scott, Anne Jeffreys &amp; Robert Ryan.mp4\nFormat                         : MPEG-4\nFormat profile                 : Base Media / Version 2\nCodec ID                       : mp42\nFile size                      : 492 MiB\nDuration                       : 1h 23mn\nOverall bit rate mode          : Variable\nOverall bit rate               : 820 Kbps\nEncoded date                   : UTC 2013-10-17 07:28:48\nTagged date                    : UTC 2013-10-17 08:32:04\n\n\nVideo:\n\nID                             : 1\nFormat                         : AVC\nFormat/Info                    : Advanced Video Codec\nFormat profile                 : &lt;a class=&quot;__cf_email__&quot; href=&quot;/cdn-cgi/l/email-protection&quot; data-cfemail=&quot;327f535b5c727e061c02&quot;&gt;[email&amp;#160;protected]&lt;/a&gt;&lt;script cf-hash='f9e31' type=&quot;text/javascript&quot;&gt;\n/* &lt;![CDATA[ */!function(){try{var t=&quot;currentScript&quot;in document?document.currentScript:function(){for(var t=document.getElementsByTagName(&quot;script&quot;),e=t.length;e--;)if(t[e].getAttribute(&quot;cf-hash&quot;))return t[e]}();if(t&amp;&amp;t.previousSibling){var e,r,n,i,c=t.previousSibling,a=c.getAttribute(&quot;data-cfemail&quot;);if(a){for(e=&quot;&quot;,r=parseInt(a.substr(0,2),16),n=2;a.length-n;n+=2)i=parseInt(a.substr(n,2),16)^r,e+=String.fromCharCode(i);e=document.createTextNode(e),c.parentNode.replaceChild(e,c)}}}catch(u){}}();/* ]]&gt; */&lt;/script&gt;\nFormat settings, CABAC         : Yes\nFormat settings, ReFrames      : 4 frames\nCodec ID                       : avc1\nCodec ID/Info                  : Advanced Video Coding\nDuration                       : 1h 23mn\nBit rate mode                  : Variable\nBit rate                       : 656 Kbps\nWidth                          : 640 pixels\nHeight                         : 484 pixels\nDisplay aspect ratio           : 4:3\nFrame rate mode                : Constant\nFrame rate                     : 24.000 fps\nColor space                    : YUV\nChroma subsampling             : 4:2:0\nBit depth                      : 8 bits\nScan type                      : Progressive\nBits/(Pixel*Frame)             : 0.088\nStream size                    : 394 MiB (80%)\nWriting library                : x264 core 130 r2273 b3065e6\nEncoding settings              : Deleted\nEncoded date                   : UTC 2013-10-17 07:28:48\nTagged date                    : UTC 2013-10-17 08:32:04\nColor primaries                : BT.601 NTSC\nTransfer characteristics       : BT.709\nMatrix coefficients            : BT.601\n\nAudio:\n\nID                             : 2\nFormat                         : AAC\nFormat/Info                    : Advanced Audio Codec\nFormat profile                 : LC\nCodec ID                       : 40\nDuration                       : 1h 23mn\nBit rate mode                  : Variable\nBit rate                       : 160 Kbps\nMaximum bit rate               : 200 Kbps\nChannel(s)                     : 2 channels\nChannel positions              : Front: L R\nSampling rate                  : 48.0 KHz\nCompression mode               : Lossy\nDelay relative to video        : 83ms\nStream size                    : 96.0 MiB (20%)\nEncoded date                   : UTC 2013-10-17 07:28:48\nTagged date                    : UTC 2013-10-17 08:32:03\n\n","torrent":{"xt":"urn:btih:7231afe03c9a72b8e90a048ec0b1194d2fa8edd7","amp;dn":"Trail+Street++%28Western+1947%29++Randolph+Scott%2C+Anne+Jeffreys+%26amp","amp;tr":["udp%3A%2F%2Ftracker.openbittorrent.com%3A80","udp%3A%2F%2Fopen.demonii.com%3A1337","udp%3A%2F%2Ftracker.coppersurfer.tk%3A6969","udp%3A%2F%2Fexodus.desync.com%3A6969"],"infoHash":"7231afe03c9a72b8e90a048ec0b1194d2fa8edd7","infoHashBuffer":{"type":"Buffer","data":[114,49,175,224,60,154,114,184,233,10,4,142,192,177,25,77,47,168,237,215]},"announce":[],"urlList":[]}}